{
	"asset":{
		"generator":"Khronos glTF Blender I/O v3.6.28",
		"version":"2.0"
	},
	"scene":0,
	"scenes":[
		{
			"name":"Scene",
			"nodes":[
				0,
				1
			]
		}
	],
	"nodes":[
		{
			"mesh":0,
			"name":"table.001",
			"translation":[
				-2.9119110107421875,
				-0.5510028600692749,
				1.2087863683700562
			]
		},
		{
			"mesh":1,
			"name":"Plane",
			"translation":[
				0.2967754900455475,
				-0.09512320160865784,
				1.055654525756836
			]
		}
	],
	"meshes":[
		{
			"name":"Cube.011",
			"primitives":[
				{
					"attributes":{
						"POSITION":0,
						"NORMAL":1,
						"TEXCOORD_0":2
					},
					"indices":3
				}
			]
		},
		{
			"name":"Plane",
			"primitives":[
				{
					"attributes":{
						"POSITION":4,
						"NORMAL":5,
						"TEXCOORD_0":6
					},
					"indices":7
				}
			]
		}
	],
	"accessors":[
		{
			"bufferView":0,
			"componentType":5126,
			"count":24,
			"max":[
				1.6528396606445312,
				1.3785760402679443,
				1.6573948860168457
			],
			"min":[
				-0.11043792963027954,
				0.5705934166908264,
				-0.10872012376785278
			],
			"type":"VEC3"
		},
		{
			"bufferView":1,
			"componentType":5126,
			"count":24,
			"type":"VEC3"
		},
		{
			"bufferView":2,
			"componentType":5126,
			"count":24,
			"type":"VEC2"
		},
		{
			"bufferView":3,
			"componentType":5123,
			"count":36,
			"type":"SCALAR"
		},
		{
			"bufferView":4,
			"componentType":5126,
			"count":108,
			"max":[
				10.743308067321777,
				3.442119598388672,
				8.709309577941895
			],
			"min":[
				-16.179492950439453,
				0.14988577365875244,
				-10.443513870239258
			],
			"type":"VEC3"
		},
		{
			"bufferView":5,
			"componentType":5126,
			"count":108,
			"type":"VEC3"
		},
		{
			"bufferView":6,
			"componentType":5126,
			"count":108,
			"type":"VEC2"
		},
		{
			"bufferView":7,
			"componentType":5123,
			"count":210,
			"type":"SCALAR"
		}
	],
	"bufferViews":[
		{
			"buffer":0,
			"byteLength":288,
			"byteOffset":0,
			"target":34962
		},
		{
			"buffer":0,
			"byteLength":288,
			"byteOffset":288,
			"target":34962
		},
		{
			"buffer":0,
			"byteLength":192,
			"byteOffset":576,
			"target":34962
		},
		{
			"buffer":0,
			"byteLength":72,
			"byteOffset":768,
			"target":34963
		},
		{
			"buffer":0,
			"byteLength":1296,
			"byteOffset":840,
			"target":34962
		},
		{
			"buffer":0,
			"byteLength":1296,
			"byteOffset":2136,
			"target":34962
		},
		{
			"buffer":0,
			"byteLength":864,
			"byteOffset":3432,
			"target":34962
		},
		{
			"buffer":0,
			"byteLength":420,
			"byteOffset":4296,
			"target":34963
		}
	],
	"buffers":[
		{
			"byteLength":4716,
			"uri":"collider.bin"
		}
	]
}
