{
	"asset":{
		"generator":"Khronos glTF Blender I/O v3.6.28",
		"version":"2.0"
	},
	"scene":0,
	"scenes":[
		{
			"name":"Scene",
			"nodes":[
				0,
				1,
				2,
				3,
				4,
				5,
				6,
				7,
				8,
				9
			]
		}
	],
	"nodes":[
		{
			"mesh":0,
			"name":"Cocotte minute"
		},
		{
			"mesh":1,
			"name":"Casserole",
			"translation":[
				0.1820867657661438,
				0.07040411233901978,
				0.46352726221084595
			]
		},
		{
			"mesh":2,
			"name":"microwave",
			"translation":[
				-0.5861803889274597,
				0.2195879966020584,
				-0.363178551197052
			]
		},
		{
			"mesh":3,
			"name":"bol",
			"translation":[
				-1.4811009168624878,
				0.38733452558517456,
				-0.5705957412719727
			]
		},
		{
			"mesh":4,
			"name":"planche",
			"translation":[
				-1.4511048793792725,
				0.11688706278800964,
				-0.3804050385951996
			]
		},
		{
			"mesh":5,
			"name":"gobelet",
			"translation":[
				-2.4363880157470703,
				0.43186521530151367,
				-0.6523959636688232
			]
		},
		{
			"mesh":6,
			"name":"gobelet.001",
			"translation":[
				-3.9164459705352783,
				0.2103917896747589,
				-1.0193830728530884
			]
		},
		{
			"mesh":7,
			"name":"frigo",
			"translation":[
				-3.539874792098999,
				-0.5692776441574097,
				-0.21551179885864258
			]
		},
		{
			"mesh":8,
			"name":"table",
			"translation":[
				-2.9119110107421875,
				-0.5510028600692749,
				1.2087863683700562
			]
		},
		{
			"mesh":9,
			"name":"plant",
			"translation":[
				-2.897346019744873,
				0.38803863525390625,
				-0.25203007459640503
			]
		}
	],
	"meshes":[
		{
			"name":"Cube.001",
			"primitives":[
				{
					"attributes":{
						"POSITION":0,
						"NORMAL":1,
						"TEXCOORD_0":2
					},
					"indices":3
				}
			]
		},
		{
			"name":"Cube.002",
			"primitives":[
				{
					"attributes":{
						"POSITION":4,
						"NORMAL":5,
						"TEXCOORD_0":6
					},
					"indices":3
				}
			]
		},
		{
			"name":"Cube.003",
			"primitives":[
				{
					"attributes":{
						"POSITION":7,
						"NORMAL":8,
						"TEXCOORD_0":9
					},
					"indices":10
				}
			]
		},
		{
			"name":"Cube.004",
			"primitives":[
				{
					"attributes":{
						"POSITION":11,
						"NORMAL":12,
						"TEXCOORD_0":13
					},
					"indices":3
				}
			]
		},
		{
			"name":"Cube.005",
			"primitives":[
				{
					"attributes":{
						"POSITION":14,
						"NORMAL":15,
						"TEXCOORD_0":16
					},
					"indices":3
				}
			]
		},
		{
			"name":"Cube.006",
			"primitives":[
				{
					"attributes":{
						"POSITION":17,
						"NORMAL":18,
						"TEXCOORD_0":19
					},
					"indices":3
				}
			]
		},
		{
			"name":"Cube.007",
			"primitives":[
				{
					"attributes":{
						"POSITION":20,
						"NORMAL":21,
						"TEXCOORD_0":22
					},
					"indices":3
				}
			]
		},
		{
			"name":"Cube.008",
			"primitives":[
				{
					"attributes":{
						"POSITION":23,
						"NORMAL":24,
						"TEXCOORD_0":25
					},
					"indices":3
				}
			]
		},
		{
			"name":"Cube.009",
			"primitives":[
				{
					"attributes":{
						"POSITION":26,
						"NORMAL":27,
						"TEXCOORD_0":28
					},
					"indices":29
				}
			]
		},
		{
			"name":"Cube.010",
			"primitives":[
				{
					"attributes":{
						"POSITION":30,
						"NORMAL":31,
						"TEXCOORD_0":32
					},
					"indices":3
				}
			]
		}
	],
	"accessors":[
		{
			"bufferView":0,
			"componentType":5126,
			"count":24,
			"max":[
				-0.30770283937454224,
				1.258115291595459,
				1.4922752380371094
			],
			"min":[
				-0.6137747168540955,
				0.9740517139434814,
				1.183040976524353
			],
			"type":"VEC3"
		},
		{
			"bufferView":1,
			"componentType":5126,
			"count":24,
			"type":"VEC3"
		},
		{
			"bufferView":2,
			"componentType":5126,
			"count":24,
			"type":"VEC2"
		},
		{
			"bufferView":3,
			"componentType":5123,
			"count":36,
			"type":"SCALAR"
		},
		{
			"bufferView":4,
			"componentType":5126,
			"count":24,
			"max":[
				-0.2631716728210449,
				1.1435524225234985,
				1.4879299402236938
			],
			"min":[
				-0.5692435503005981,
				0.901675283908844,
				1.1786956787109375
			],
			"type":"VEC3"
		},
		{
			"bufferView":5,
			"componentType":5126,
			"count":24,
			"type":"VEC3"
		},
		{
			"bufferView":6,
			"componentType":5126,
			"count":24,
			"type":"VEC2"
		},
		{
			"bufferView":7,
			"componentType":5126,
			"count":24,
			"max":[
				0.33438873291015625,
				1.0479624271392822,
				0.9917385578155518
			],
			"min":[
				-0.16274143755435944,
				0.7551284432411194,
				0.5848857164382935
			],
			"type":"VEC3"
		},
		{
			"bufferView":8,
			"componentType":5126,
			"count":24,
			"type":"VEC3"
		},
		{
			"bufferView":9,
			"componentType":5126,
			"count":24,
			"type":"VEC2"
		},
		{
			"bufferView":10,
			"componentType":5123,
			"count":36,
			"type":"SCALAR"
		},
		{
			"bufferView":11,
			"componentType":5126,
			"count":24,
			"max":[
				0.6717634797096252,
				0.7774118185043335,
				0.9905580878257751
			],
			"min":[
				0.42872360348701477,
				0.5518478751182556,
				0.7450070977210999
			],
			"type":"VEC3"
		},
		{
			"bufferView":12,
			"componentType":5126,
			"count":24,
			"type":"VEC3"
		},
		{
			"bufferView":13,
			"componentType":5126,
			"count":24,
			"type":"VEC2"
		},
		{
			"bufferView":14,
			"componentType":5126,
			"count":24,
			"max":[
				-0.261279821395874,
				0.8687319159507751,
				0.9669002890586853
			],
			"min":[
				-0.7081132531166077,
				0.8221805691719055,
				0.657666027545929
			],
			"type":"VEC3"
		},
		{
			"bufferView":15,
			"componentType":5126,
			"count":24,
			"type":"VEC3"
		},
		{
			"bufferView":16,
			"componentType":5126,
			"count":24,
			"type":"VEC2"
		},
		{
			"bufferView":17,
			"componentType":5126,
			"count":24,
			"max":[
				0.6270851492881775,
				0.7055028676986694,
				0.8866722583770752
			],
			"min":[
				0.47036072611808777,
				0.5178283452987671,
				0.7283285856246948
			],
			"type":"VEC3"
		},
		{
			"bufferView":18,
			"componentType":5126,
			"count":24,
			"type":"VEC3"
		},
		{
			"bufferView":19,
			"componentType":5126,
			"count":24,
			"type":"VEC2"
		},
		{
			"bufferView":20,
			"componentType":5126,
			"count":24,
			"max":[
				0.9102879166603088,
				0.9924209713935852,
				1.406009554862976
			],
			"min":[
				0.6939737796783447,
				0.7333887219429016,
				1.1874603033065796
			],
			"type":"VEC3"
		},
		{
			"bufferView":21,
			"componentType":5126,
			"count":24,
			"type":"VEC3"
		},
		{
			"bufferView":22,
			"componentType":5126,
			"count":24,
			"type":"VEC2"
		},
		{
			"bufferView":23,
			"componentType":5126,
			"count":24,
			"max":[
				1.2705737352371216,
				2.265303373336792,
				0.9047068357467651
			],
			"min":[
				0.6617331504821777,
				0.5755394697189331,
				0.40823256969451904
			],
			"type":"VEC3"
		},
		{
			"bufferView":24,
			"componentType":5126,
			"count":24,
			"type":"VEC3"
		},
		{
			"bufferView":25,
			"componentType":5126,
			"count":24,
			"type":"VEC2"
		},
		{
			"bufferView":26,
			"componentType":5126,
			"count":24,
			"max":[
				1.6528396606445312,
				1.3785760402679443,
				1.6573948860168457
			],
			"min":[
				-0.11043792963027954,
				0.5705934166908264,
				-0.10872012376785278
			],
			"type":"VEC3"
		},
		{
			"bufferView":27,
			"componentType":5126,
			"count":24,
			"type":"VEC3"
		},
		{
			"bufferView":28,
			"componentType":5126,
			"count":24,
			"type":"VEC2"
		},
		{
			"bufferView":29,
			"componentType":5123,
			"count":36,
			"type":"SCALAR"
		},
		{
			"bufferView":30,
			"componentType":5126,
			"count":24,
			"max":[
				0.7150290608406067,
				0.7047487497329712,
				2.6219851970672607
			],
			"min":[
				0.4987149238586426,
				0.4457164704799652,
				2.4034359455108643
			],
			"type":"VEC3"
		},
		{
			"bufferView":31,
			"componentType":5126,
			"count":24,
			"type":"VEC3"
		},
		{
			"bufferView":32,
			"componentType":5126,
			"count":24,
			"type":"VEC2"
		}
	],
	"bufferViews":[
		{
			"buffer":0,
			"byteLength":288,
			"byteOffset":0,
			"target":34962
		},
		{
			"buffer":0,
			"byteLength":288,
			"byteOffset":288,
			"target":34962
		},
		{
			"buffer":0,
			"byteLength":192,
			"byteOffset":576,
			"target":34962
		},
		{
			"buffer":0,
			"byteLength":72,
			"byteOffset":768,
			"target":34963
		},
		{
			"buffer":0,
			"byteLength":288,
			"byteOffset":840,
			"target":34962
		},
		{
			"buffer":0,
			"byteLength":288,
			"byteOffset":1128,
			"target":34962
		},
		{
			"buffer":0,
			"byteLength":192,
			"byteOffset":1416,
			"target":34962
		},
		{
			"buffer":0,
			"byteLength":288,
			"byteOffset":1608,
			"target":34962
		},
		{
			"buffer":0,
			"byteLength":288,
			"byteOffset":1896,
			"target":34962
		},
		{
			"buffer":0,
			"byteLength":192,
			"byteOffset":2184,
			"target":34962
		},
		{
			"buffer":0,
			"byteLength":72,
			"byteOffset":2376,
			"target":34963
		},
		{
			"buffer":0,
			"byteLength":288,
			"byteOffset":2448,
			"target":34962
		},
		{
			"buffer":0,
			"byteLength":288,
			"byteOffset":2736,
			"target":34962
		},
		{
			"buffer":0,
			"byteLength":192,
			"byteOffset":3024,
			"target":34962
		},
		{
			"buffer":0,
			"byteLength":288,
			"byteOffset":3216,
			"target":34962
		},
		{
			"buffer":0,
			"byteLength":288,
			"byteOffset":3504,
			"target":34962
		},
		{
			"buffer":0,
			"byteLength":192,
			"byteOffset":3792,
			"target":34962
		},
		{
			"buffer":0,
			"byteLength":288,
			"byteOffset":3984,
			"target":34962
		},
		{
			"buffer":0,
			"byteLength":288,
			"byteOffset":4272,
			"target":34962
		},
		{
			"buffer":0,
			"byteLength":192,
			"byteOffset":4560,
			"target":34962
		},
		{
			"buffer":0,
			"byteLength":288,
			"byteOffset":4752,
			"target":34962
		},
		{
			"buffer":0,
			"byteLength":288,
			"byteOffset":5040,
			"target":34962
		},
		{
			"buffer":0,
			"byteLength":192,
			"byteOffset":5328,
			"target":34962
		},
		{
			"buffer":0,
			"byteLength":288,
			"byteOffset":5520,
			"target":34962
		},
		{
			"buffer":0,
			"byteLength":288,
			"byteOffset":5808,
			"target":34962
		},
		{
			"buffer":0,
			"byteLength":192,
			"byteOffset":6096,
			"target":34962
		},
		{
			"buffer":0,
			"byteLength":288,
			"byteOffset":6288,
			"target":34962
		},
		{
			"buffer":0,
			"byteLength":288,
			"byteOffset":6576,
			"target":34962
		},
		{
			"buffer":0,
			"byteLength":192,
			"byteOffset":6864,
			"target":34962
		},
		{
			"buffer":0,
			"byteLength":72,
			"byteOffset":7056,
			"target":34963
		},
		{
			"buffer":0,
			"byteLength":288,
			"byteOffset":7128,
			"target":34962
		},
		{
			"buffer":0,
			"byteLength":288,
			"byteOffset":7416,
			"target":34962
		},
		{
			"buffer":0,
			"byteLength":192,
			"byteOffset":7704,
			"target":34962
		}
	],
	"buffers":[
		{
			"byteLength":7896,
			"uri":"interaction.bin"
		}
	]
}
