{
  "accessors": [
    {
      "bufferView": 2,
      "componentType": 5126,
      "count": 22326,
      "max": [
        5.600005149841309,
        300.0000305175781,
        13.500014305114746
      ],
      "min": [
        -300.0,
        -0.14203520119190216,
        -405.0000305175781
      ],
      "type": "VEC3"
    },
    {
      "bufferView": 2,
      "byteOffset": 267912,
      "componentType": 5126,
      "count": 22326,
      "max": [
        1.0,
        1.0,
        1.0
      ],
      "min": [
        -1.0,
        -1.0,
        -1.0
      ],
      "type": "VEC3"
    },
    {
      "bufferView": 1,
      "componentType": 5126,
      "count": 22326,
      "max": [
        1.0002861022949219,
        0.9996729493141174
      ],
      "min": [
        0.0,
        0.0
      ],
      "type": "VEC2"
    },
    {
      "bufferView": 1,
      "byteOffset": 178608,
      "componentType": 5126,
      "count": 22326,
      "max": [
        1.0002861022949219,
        0.9996729493141174
      ],
      "min": [
        0.0,
        0.0
      ],
      "type": "VEC2"
    },
    {
      "bufferView": 1,
      "byteOffset": 357216,
      "componentType": 5126,
      "count": 22326,
      "max": [
        1.0002861022949219,
        0.9996729493141174
      ],
      "min": [
        0.0,
        0.0
      ],
      "type": "VEC2"
    },
    {
      "bufferView": 0,
      "componentType": 5125,
      "count": 141012,
      "type": "SCALAR"
    }
  ],
  "asset": {
    "extras": {
      "author": "blckwzrd (https://sketchfab.com/blckwzrd)",
      "license": "CC-BY-4.0 (http://creativecommons.org/licenses/by/4.0/)",
      "source": "https://sketchfab.com/3d-models/a-low-poly-modular-kitchen-set-3496f5f09fe44b68967715ed04bc1eeb",
      "title": "A Low-Poly Modular Kitchen Set"
    },
    "generator": "Sketchfab-15.37.0",
    "version": "2.0"
  },
  "bufferViews": [
    {
      "buffer": 0,
      "byteLength": 564048,
      "name": "floatBufferViews",
      "target": 34963
    },
    {
      "buffer": 0,
      "byteLength": 535824,
      "byteOffset": 564048,
      "byteStride": 8,
      "name": "floatBufferViews",
      "target": 34962
    },
    {
      "buffer": 0,
      "byteLength": 535824,
      "byteOffset": 1099872,
      "byteStride": 12,
      "name": "floatBufferViews",
      "target": 34962
    }
  ],
  "buffers": [
    {
      "byteLength": 1635696,
      "uri": "scene.bin"
    }
  ],
  "images": [
    {
      "uri": "textures/M_Objects_baseColor.png"
    }
  ],
  "materials": [
    {
      "doubleSided": true,
      "name": "M_Objects",
      "pbrMetallicRoughness": {
        "baseColorTexture": {
          "index": 0
        },
        "metallicFactor": 0.0,
        "roughnessFactor": 0.608001852958028
      }
    }
  ],
  "meshes": [
    {
      "name": "Kitchen_M_Objects_0",
      "primitives": [
        {
          "attributes": {
            "NORMAL": 1,
            "POSITION": 0,
            "TEXCOORD_0": 2,
            "TEXCOORD_1": 3,
            "TEXCOORD_2": 4
          },
          "indices": 5,
          "material": 0,
          "mode": 4
        }
      ]
    }
  ],
  "nodes": [
    {
      "children": [
        1
      ],
      "matrix": [
        2.4553907542037906e-16,
        2.4553907542037906e-16,
        -1.1058096885681152,
        0.0,
        -1.1058096885681152,
        5.452062699537553e-32,
        -2.4553907542037906e-16,
        0.0,
        0.0,
        1.1058096885681152,
        2.4553907542037906e-16,
        0.0,
        0.0,
        0.0,
        0.0,
        1.0
      ],
      "name": "Sketchfab_model"
    },
    {
      "children": [
        2
      ],
      "matrix": [
        0.009999999776482582,
        0.0,
        0.0,
        0.0,
        0.0,
        0.0,
        0.009999999776482582,
        0.0,
        0.0,
        -0.009999999776482582,
        0.0,
        0.0,
        0.0,
        0.0,
        0.0,
        1.0
      ],
      "name": "4bc3ffca2cda45e188b610db32b3e47d.fbx"
    },
    {
      "children": [
        3
      ],
      "name": "RootNode"
    },
    {
      "children": [
        4
      ],
      "name": "Kitchen"
    },
    {
      "mesh": 0,
      "name": "Kitchen_M_Objects_0"
    }
  ],
  "samplers": [
    {
      "magFilter": 9729,
      "minFilter": 9987,
      "wrapS": 10497,
      "wrapT": 10497
    }
  ],
  "scene": 0,
  "scenes": [
    {
      "name": "Sketchfab_Scene",
      "nodes": [
        0
      ]
    }
  ],
  "textures": [
    {
      "sampler": 0,
      "source": 0
    }
  ]
}
